<?xml version="1.0" encoding="UTF-8"?>
<svg id="Layer_1" data-name="Layer 1" xmlns="http://www.w3.org/2000/svg" viewBox="250 250 1000 400">
  <defs>
    <style>
      .cls-1 {
        fill: #ff520e;
      }
    </style>
  </defs>
  <path class="cls-1" d="M848.99,589.07c1.93-35.28,14.12-91.14,33.55-153.63l.3-.97h5.37v1.38c.44,75.28-2.27,114.34-10.7,153.22h96.22c12.82-41.61,33.24-82.93,71.16-153.87l.39-.73h6.82l-.39,1.7c-13.68,59.56-32.03,116.47-49.27,152.9h115.08c8.46-67.01,53.48-234.81,78.97-294.54h-176.03c-9.34,39.5-22.7,74.21-61.42,159.73l-.37.81h-4.94l.12-1.5c6.79-85.27,11.86-120.09,23.31-159.05h-295.33c-15.94,38.61-45.4,83.22-85.25,129.07l-4.05,4.66-.91,3.39c7.33-29.28,20.71-72.88,47.62-137.12h-137.22c-3.6,46.04-12.39,94.21-24.17,132.39-7.08,23.01-16.15,44.3-34.45,44.3-14.75,0-21.35-12.43-21.35-24.74,0-26.65,24.35-98.54,51.37-151.94h-138.37c-7.27,62.09-18.98,120.41-31.35,156.22-14.03,40.59-11.91,74.13,6.29,99.68,21.34,29.96,65.17,47.14,120.24,47.14,50.64,0,89.55-14.8,115.66-43.98,18.58-20.76,31.01-48.94,38-86.14.63-3.33,1.35-7.17,2.24-11.55l.94,2.88c13.5,41.33,21.16,91.09,20.07,130.28h241.86ZM738.94,562.14c-16.11-40.08-29.38-79.75-39.43-118.29l-.17-.64.4-.53c32.36-43.38,68.21-82.86,103.72-119.46-11.62,63.18-41.11,172.54-64.52,238.92Z"/>
</svg>